<svg width="467" height="467" viewBox="0 0 467 467" fill="none" xmlns="http://www.w3.org/2000/svg">
<path d="M369.743 61.6235C393.526 96.2529 398.518 142.621 412.612 179.305C426.706 216.282 449.316 243.868 460.18 277.617C471.044 311.366 469.576 351.277 451.077 380.037C432.285 408.797 396.169 426.112 361.521 439.318C326.873 452.524 293.693 461.035 258.164 465.143C222.929 468.958 185.344 468.078 157.156 451.057C128.968 434.329 110.175 401.46 82.2807 368.885C54.3861 336.31 17.0953 304.029 4.76295 264.41C-7.56942 224.792 5.3502 178.131 28.5468 137.632C52.0371 96.8398 85.5106 61.917 126.031 36.9722C166.552 12.0273 213.532 -3.23307 258.458 0.58202C303.089 4.39711 345.959 26.9942 369.743 61.6235Z" fill="url(#paint0_linear_166_598)"/>
<defs>
<linearGradient id="paint0_linear_166_598" x1="233.5" y1="0" x2="233.5" y2="467" gradientUnits="userSpaceOnUse">
<stop stop-color="#BFE4E4"/>
<stop offset="1" stop-color="#03ADB0"/>
</linearGradient>
</defs>
</svg>
