<svg width="997" height="971" viewBox="0 0 997 971" fill="none" xmlns="http://www.w3.org/2000/svg">
<path d="M531.48 0.119399C603.905 1.77257 677.511 59.2702 758.163 99.6081C838.282 140.305 926.873 163.658 965.339 220.77C1004.7 278.058 993.572 368.57 993.483 454.754C993.394 540.937 1003.45 622.616 986.757 706.016C970.24 788.522 927.15 871.856 858.535 917.293C790.281 963.264 697.035 970.978 606.246 970.831C515.99 970.324 429.083 962.131 353.985 926.587C279.246 891.577 216.85 828.857 156.018 758.101C95.1852 687.344 35.5569 608.018 12.249 515.868C-11.5921 424.077 1.24665 319.996 57.0688 249.812C113.424 179.269 213.122 143.156 299.22 98.358C385.851 53.2011 458.521 -1.17463 531.48 0.119399Z" fill="url(#paint0_linear_155_600)"/>
<defs>
<linearGradient id="paint0_linear_155_600" x1="282.343" y1="83.6775" x2="848.398" y2="924.129" gradientUnits="userSpaceOnUse">
<stop stop-color="#BFE4E4"/>
<stop offset="1" stop-color="#03ADB0"/>
</linearGradient>
</defs>
</svg>
