<svg width="1440" height="141" viewBox="0 0 1440 141" fill="none" xmlns="http://www.w3.org/2000/svg">
<path opacity="0.33" d="M681.12 46.2416C387.504 -78.0848 302.256 94.1136 219.888 46.2416C95.04 -26.6928 0 56.9424 0 56.9424V141H1440V56.9424C1440 56.9424 1350.58 20.1936 1303.34 15.688C1256.11 11.0416 1212.91 33.0064 1194.19 46.8048C1160.64 71.1632 1073.23 128.75 1000.66 134.382C928.08 140.014 709.056 57.928 681.12 46.2416Z" fill="#EAF6F6"/>
<path opacity="0.66" d="M1056.96 46.2416C991.44 46.2416 945.792 78.9072 871.056 101.294C829.872 113.544 654.624 115.515 505.296 46.2416C355.968 -23.032 373.248 94.6768 290.448 46.2416C166.608 -25.5664 0 84.9616 0 84.9616V141H1440V89.608C1440 89.608 1399.39 115.656 1307.38 115.656C1166.69 115.515 1117.01 46.2416 1056.96 46.2416Z" fill="#EAF6F6"/>
<path d="M1103.18 100.309C815.184 181.269 720.144 8.08479 534.24 72.8528C348.48 138.466 348.48 133.397 266.112 111.995C184.32 90.5936 190.512 77.7808 129.456 67.08C41.184 51.3104 0 141 0 141H1440C1440 141 1425.74 83.4128 1319.62 73.2752C1213.49 63.1376 1194.62 74.824 1103.18 100.309Z" fill="#EAF6F6"/>
</svg>
