<svg width="449" height="400" viewBox="0 0 449 400" fill="none" xmlns="http://www.w3.org/2000/svg">
<path d="M436.528 350H424.056V75H24.9444V350H12.4878C5.59691 350 0.0155903 355.594 0.0155903 362.5V387.5C0.0155903 394.406 5.59691 400 12.4878 400H137.194C144.085 400 149.667 394.406 149.667 387.5V250C149.667 208.578 183.17 175 224.5 175C265.83 175 299.333 208.578 299.333 250L299.349 375V387.5C299.349 394.406 304.93 400 311.821 400H436.528C443.419 400 449 394.406 449 387.5V362.5C449 355.594 443.419 350 436.528 350ZM436.528 0H12.4722C5.58132 0 0 5.59375 0 12.5V37.5C0 44.4063 5.58132 50 12.4722 50H436.528C443.419 50 449 44.4063 449 37.5V12.5C449 5.59375 443.419 0 436.528 0Z" fill="black"/>
</svg>
